Coordinates
version=1
nRows=11
nColumns=42
inDegrees=yes

Units are S.I. units (second, meters, Newtons, ...)
If the header above contains a line with 'inDegrees', this indicates whether rotational values are in degrees (yes) or radians (no).

endheader
time	pelvis_tilt	pelvis_list	pelvis_rotation	pelvis_tx	pelvis_ty	pelvis_tz	hip_flexion_r	hip_adduction_r	hip_rotation_r	knee_angle_r	knee_adduction_r	knee_angle_r_beta	ankle_angle_r	subtalar_angle_r	mtp_angle_r	hip_flexion_l	hip_adduction_l	hip_rotation_l	knee_angle_l	knee_adduction_l	knee_angle_l_beta	ankle_angle_l	subtalar_angle_l	mtp_angle_l	lumbar_extension	lumbar_bending	lumbar_rotation	arm_flex_r	arm_add_r	arm_rot_r	elbow_flex_r	pro_sup_r	wrist_flex_r	wrist_dev_r	arm_flex_l	arm_add_l	arm_rot_l	elbow_flex_l	pro_sup_l	wrist_flex_l	wrist_dev_l
      2.94000000	     -0.70057801	     -2.12708760	     -2.28918562	      1.12938282	      0.88115271	     -0.14303787	    -10.41190342	     -2.02736553	     -3.81477225	      6.41893024	     12.35518254	      0.11203147	     17.01485528	      4.47675877	     -7.50024093	     23.22769796	    -12.71091513	     -6.05990909	     16.25130361	     16.23419695	      0.28363876	      3.95880145	     -4.34043394	     -7.50024093	    -16.91180120	      5.15629175	      2.15620691	     -5.56837081	    -14.09053088	     -3.63430573	     18.67053464	     90.00000001	      0.00000000	      0.00000000	    -12.19072979	     -6.40274364	      6.14275023	     21.79001029	     90.00000001	      0.00000000	      0.00000000
      2.95000000	     -0.70959160	     -2.25186542	     -2.48181146	      1.13960786	      0.87926194	     -0.14330084	    -11.05668382	     -1.98353370	     -3.85442403	      6.61221229	     12.40147832	      0.11540488	     17.38072844	      4.50489300	     -7.50023152	     23.19760975	    -12.65494264	     -6.98690687	     13.58767560	     15.75840890	      0.23714968	      3.81306619	     -3.42842582	     -7.50023152	    -16.93414523	      5.11963220	      2.29532059	     -5.60581451	    -14.14383653	     -3.57716133	     18.64094324	     90.00000001	      0.00000000	      0.00000000	    -12.30509999	     -6.27802763	      6.19342655	     21.88796296	     90.00000001	      0.00000000	      0.00000000
      2.96000000	     -1.00736074	     -2.57213973	     -2.61641496	      1.14975945	      0.87691899	     -0.14346016	    -11.36030615	     -1.62613740	     -3.85887897	      6.86035245	     12.29988132	      0.11973574	     17.71303207	      4.51978154	     -7.50022764	     23.67962785	    -12.85673611	     -7.87155559	     11.47058463	     15.37116139	      0.20019947	      3.73170036	     -2.42888506	     -7.50022764	    -16.63516839	      5.29128637	      2.42870844	     -5.67861662	    -14.18197134	     -3.52995985	     18.59995173	     90.00000001	      0.00000000	      0.00000000	    -12.45649941	     -6.16816912	      6.22833874	     22.02233608	     90.00000001	      0.00000000	      0.00000000
      2.97000000	     -0.99388650	     -2.74550737	     -2.87921976	      1.16020943	      0.87504538	     -0.14381132	    -12.00347298	     -1.59358649	     -3.84095693	      7.14219587	     12.38150717	      0.12465483	     18.02522252	      4.58177499	     -7.50022304	     23.59250600	    -12.89529645	     -8.82638660	      9.26551432	     15.02196140	      0.16171373	      3.99694178	     -1.46322127	     -7.50022304	    -16.69730306	      5.29239757	      2.64660380	     -5.70519478	    -14.26078164	     -3.48705005	     18.55475254	     90.00000001	      0.00000000	      0.00000000	    -12.56563182	     -6.02954510	      6.29523318	     22.14748316	     90.00000001	      0.00000000	      0.00000000
      2.98000000	     -0.79320401	     -2.68018145	     -3.13459393	      1.17114769	      0.87342510	     -0.14429976	    -12.93888162	     -1.89229212	     -3.92308485	      7.31694103	     12.50737671	      0.12770471	     18.28008930	      4.82676674	     -7.50021556	     23.25522438	    -12.61474978	    -10.00040556	      7.38383844	     14.59793104	      0.12887229	      4.26143937	     -0.73911325	     -7.50021556	    -16.90048255	      4.99578075	      2.81538353	     -5.80255522	    -14.26720911	     -3.45297039	     18.59118983	     90.00000001	      0.00000000	      0.00000000	    -12.68198290	     -5.97732125	      6.39252807	     22.33227792	     90.00000001	      0.00000000	      0.00000000
      2.99000000	     -0.99661717	     -2.97549159	     -3.09128419	      1.18177463	      0.87119364	     -0.14499495	    -13.43763510	     -1.66879880	     -4.06824231	      7.50683942	     12.54993125	      0.13101906	     18.35656116	      4.83925910	     -7.50021418	     23.94649629	    -12.72862684	    -10.84135618	      6.75556444	     14.31547241	      0.11790684	      4.47042925	     -0.70553749	     -7.50021418	    -16.68267618	      5.17929641	      2.74724168	     -5.89228165	    -14.29089029	     -3.45257858	     18.63232119	     90.00000001	      0.00000000	      0.00000000	    -12.81133304	     -5.88777625	      6.41282421	     22.45402921	     90.00000001	      0.00000000	      0.00000000
      3.00000000	     -1.18945842	     -3.18775893	     -3.17386848	      1.19264350	      0.86907146	     -0.14557610	    -13.92097353	     -1.54874489	     -4.04172242	      7.73428880	     12.51754927	      0.13498880	     18.44309308	      4.89287981	     -7.50021292	     24.43493817	    -12.79964661	    -11.49783546	      6.12968644	     14.13569775	      0.10698321	      4.74666417	     -0.59745685	     -7.50021292	    -16.47595151	      5.22789517	      2.79798409	     -6.01392872	    -14.28924411	     -3.44414109	     18.62258218	     90.00000001	      0.00000000	      0.00000000	    -12.95744542	     -5.82122352	      6.43387896	     22.59587575	     90.00000001	      0.00000000	      0.00000000
      3.01000000	     -0.89208442	     -2.82724563	     -3.89393449	      1.20420715	      0.86785288	     -0.14583375	    -14.80943043	     -2.38611298	     -3.49899985	      8.13238517	     12.68306603	      0.14193690	     18.78524138	      5.47232191	     -7.50020516	     23.62312547	    -12.37968711	    -12.45427791	      4.80499942	     13.91795336	      0.08386306	      5.29393607	      0.21822053	     -7.50020516	    -16.75408111	      4.48129950	      3.36239121	     -6.10516393	    -14.27160228	     -3.41956187	     18.57628544	     90.00000001	      0.00000000	      0.00000000	    -13.11923014	     -5.82679734	      6.66413787	     22.96559564	     90.00000001	      0.00000000	      0.00000000
      3.02000000	     -1.01555102	     -2.94471670	     -3.96011101	      1.21540101	      0.86602682	     -0.14656807	    -15.31913618	     -2.42438839	     -3.34266324	      8.47676761	     12.66013325	      0.14794750	     18.74259303	      5.53008618	     -7.50020414	     24.05369359	    -12.36981263	    -12.51744748	      4.92545353	     13.84622939	      0.08596538	      5.33060876	      0.23320459	     -7.50020414	    -16.59559728	      4.40940353	      3.39157590	     -6.24479292	    -14.23832309	     -3.41812944	     18.62794323	     90.00000001	      0.00000000	      0.00000000	    -13.21463899	     -5.78457046	      6.66360753	     23.06413454	     90.00000001	      0.00000000	      0.00000000
      3.03000000	     -1.13427347	     -3.00710447	     -4.11029681	      1.22694426	      0.86437198	     -0.14736133	    -15.82014745	     -2.56143405	     -3.10120046	      8.84792760	     12.60396853	      0.15442547	     18.68235337	      5.60339388	     -7.50020316	     24.34490159	    -12.32135458	    -12.42015327	      5.17596652	     13.80250521	      0.09033766	      5.33564994	      0.24337848	     -7.50020316	    -16.39821061	      4.27852437	      3.45499189	     -6.40101001	    -14.20648581	     -3.41835296	     18.66345857	     90.00000001	      0.00000000	      0.00000000	    -13.34797301	     -5.73605926	      6.66605901	     23.16804713	     90.00000001	      0.00000000	      0.00000000
      3.04000000	     -1.09975008	     -2.61799810	     -4.55481921	      1.23834248	      0.86310630	     -0.14831008	    -16.30971200	     -3.49611157	     -2.40376431	      9.39919418	     12.95281023	      0.16404689	     18.57386024	      5.85053478	     -7.50019990	     24.52908122	    -11.83459481	    -12.66417179	      6.08860686	     13.58861258	      0.10626624	      5.24386305	     -0.52003415	     -7.50019990	    -16.41335411	      3.58679927	      3.73316207	     -6.43950919	    -14.15201864	     -3.42974413	     18.54710502	     90.00000001	      0.00000000	      0.00000000	    -13.50092619	     -5.78611524	      6.80169717	     23.66517791	     90.00000001	      0.00000000	      0.00000000
